<svg width="165" height="64" fill="none" xmlns="http://www.w3.org/2000/svg"><path fill="#fff" d="M0 0h165v64H0z"/><g opacity=".8" fill="#0C0F1E"><path opacity=".5" d="M57.6 43.1c-.6 1.1-1.4 2.2-2.2 3.1l-.8.8c-3.5 3.5-8.2 5.5-13.1 5.5s-9.6-1.9-13.1-5.4C25 43.6 23.1 39 23.1 34v-4c.1-.5.2-1 .4-1.5 0-.1 0-.1.1-.2 0-.1 0-.1.1-.2.1-.3.2-.6.3-1 0 0 0-.1.1-.1 0 0 0-.1.1-.2 0-.1.1-.1.1-.2s0-.1.1-.2c0-.1.1-.2.1-.2 0-.1.1-.1.1-.2.5-1 1-2 1.7-2.9l.1-.1c.1-.1.1-.2.2-.3l.1-.1c.1-.1.2-.2.2-.3 0-.1.1-.1.1-.2s.1-.1.1-.2.1-.1.2-.2l.2-.2-2.2-2.2C22 23.5 20 28.6 20 34c0 5.8 2.2 11.2 6.3 15.2 4.1 4.1 9.5 6.3 15.2 6.3 5.8 0 11.2-2.3 15.3-6.3 1.2-1.2 2.2-2.5 3.1-3.9l-2.3-2.2z"/><path opacity=".8" d="M30.1 45.5c3.1 3.1 7.2 4.8 11.5 4.8h2.1c.2 0 .4-.1.6-.1h.5c.1 0 .3-.1.4-.1.1 0 .2 0 .3-.1h.1c.1 0 .1 0 .2-.1h.5c.1 0 .1 0 .2-.1h.1c.1 0 .3-.1.4-.1h.2c.1 0 .1 0 .2-.1.1 0 .1 0 .1-.1.1 0 .2-.1.2-.1l.2-.1c.1 0 .1-.1.2-.1h.1c.1 0 .1-.1.2-.1.3-.2.7-.3 1-.5 0 0 .1 0 .1-.1.1 0 .2-.1.2-.1l.4-.2c.2-.1.3-.2.5-.3.1 0 .1-.1.2-.1l.1-.1s.1 0 .1-.1l.1-.1c.1 0 .1-.1.2-.1l.1-.1c.1 0 .1-.1.2-.1s.1-.1.2-.1c.1-.1.2-.2.3-.2l.1-.1-2.2-2.2c-2.4 2-5.4 3.1-8.5 3.1-7.3 0-13.2-5.9-13.2-13.2 0-3.5 1.4-6.9 3.9-9.4 1.2-1.2 2.6-2.1 4.1-2.8L34 20c-1.5.8-2.8 1.7-4 2.9-3.1 3.1-4.8 7.2-4.8 11.5.1 4 1.8 8 4.9 11.1z"/><path opacity=".8" d="M60 30c0-5.8-2.2-11.2-6.3-15.2-4.1-4.1-9.5-6.3-15.2-6.3-5.8 0-11.2 2.3-15.3 6.3-1.2 1.1-2.2 2.4-3.1 3.8l2.2 2.2c.6-1.1 1.4-2.2 2.2-3.1l.8-.8c3.5-3.5 8.2-5.5 13.1-5.5s9.6 1.9 13.1 5.4C55 20.4 56.9 25 56.9 30v3.9c-.1.5-.2 1-.4 1.5 0 .1 0 .1-.1.2 0 .1 0 .1-.1.2-.1.3-.2.6-.3 1 0 0 0 .1-.1.1 0 .1 0 .1-.1.2 0 .1-.1.1-.1.2s0 .1-.1.2c0 .1-.1.2-.1.2 0 .1-.1.1-.1.2-.5 1-1 2-1.7 2.9l-.1.1c-.1.1-.1.2-.2.3l-.1.1c-.1.1-.2.2-.2.3 0 .1-.1.1-.1.2s-.1.1-.1.2l-.2.2-.2.2 2.2 2.2C58 40.5 60 35.4 60 30z"/><path opacity=".5" d="M43.6 42.1l2.3 2.3c1.5-.8 2.8-1.7 4-2.9 3.1-3.1 4.8-7.2 4.8-11.5s-1.7-8.4-4.8-11.5c-3.1-3.1-7.2-4.8-11.5-4.8h-2.1c-.2 0-.4.1-.6.1h-.5c-.2 0-.3.1-.4.1-.1 0-.2 0-.3.1h-.1c-.1 0-.1 0-.2.1h-.5c-.1 0-.1 0-.2.1h-.1c-.1 0-.3.1-.4.1h-.2c-.1 0-.1 0-.2.1-.1 0-.1 0-.1.1-.1 0-.2.1-.2.1l-.3.5c-.1 0-.1.1-.2.1h-.1c-.1 0-.1.1-.2.1-.3.2-.7.3-1 .5 0 0-.1 0-.1.1-.1 0-.1.1-.2.1l-.2.1-.1.1c-.2.1-.3.2-.5.3l-.1.1-.1.1s-.1 0-.1.1l-.1.1c-.1 0-.1.1-.2.1l-.1.1c-.1 0-.1.1-.2.1s-.1.1-.2.1c-.1.1-.2.2-.3.2l-.1.1 2.2 2.2c2.4-2 5.4-3.1 8.5-3.1 7.3 0 13.2 5.9 13.2 13.2 0 3.5-1.4 6.9-3.9 9.4-1.4 1.2-2.8 2.2-4.3 2.8z"/></g><path d="M73.312 28V16.72h7.168v1.344h-5.504v3.6h5.168v1.344h-5.168V28h-1.664zm7.153 0l5.024-11.28h1.376L91.905 28h-1.696l-1.184-2.752h-5.712L82.145 28h-1.68zm5.696-9.44l-2.256 5.344h4.56l-2.272-5.344h-.032zm11.192 9.584c-.886 0-1.696-.112-2.432-.336-.736-.235-1.36-.56-1.872-.976l.528-1.312c.533.405 1.104.71 1.712.912.608.203 1.296.304 2.064.304.906 0 1.573-.16 2-.48.437-.33.656-.757.656-1.28 0-.427-.155-.763-.464-1.008-.31-.256-.827-.459-1.552-.608l-1.712-.352c-1.014-.213-1.771-.565-2.272-1.056-.491-.49-.736-1.152-.736-1.984 0-.672.176-1.264.528-1.776.362-.512.864-.907 1.504-1.184.64-.288 1.376-.432 2.208-.432.768 0 1.477.117 2.128.352a4.48 4.48 0 011.68.992l-.544 1.264c-.907-.8-2-1.2-3.28-1.2-.79 0-1.419.176-1.888.528-.459.352-.688.821-.688 1.408 0 .448.144.805.432 1.072.288.267.768.47 1.44.608l1.696.352c1.066.224 1.861.57 2.384 1.04.522.459.784 1.083.784 1.872 0 .661-.176 1.237-.528 1.728-.352.49-.848.875-1.488 1.152-.64.267-1.403.4-2.288.4zm6.513-.144V16.72h1.664v4.864h6.32V16.72h1.648V28h-1.648v-5.024h-6.32V28h-1.664zm12.585 0V16.72h1.664V28h-1.664zm9.482.144c-1.077 0-2.011-.235-2.8-.704a4.883 4.883 0 01-1.84-2.016c-.427-.875-.64-1.899-.64-3.072 0-1.184.213-2.208.64-3.072.437-.864 1.051-1.53 1.84-2 .789-.47 1.723-.704 2.8-.704 1.067 0 1.995.235 2.784.704a4.65 4.65 0 011.84 2c.437.864.656 1.883.656 3.056 0 1.184-.219 2.213-.656 3.088a4.747 4.747 0 01-1.84 2.016c-.789.47-1.717.704-2.784.704zm0-1.44c1.12 0 1.989-.379 2.608-1.136.629-.768.944-1.84.944-3.216 0-1.376-.309-2.443-.928-3.2-.619-.757-1.493-1.136-2.624-1.136-1.12 0-1.995.379-2.624 1.136-.619.757-.928 1.824-.928 3.2 0 1.376.309 2.448.928 3.216.629.757 1.504 1.136 2.624 1.136zm7.83 1.296V16.72h1.264l6.464 8.528V16.72h1.536V28h-1.232l-6.496-8.56V28h-1.536z" fill="#0C0F1E" fill-opacity=".4"/><path d="M76.992 46.128c-.875 0-1.664-.112-2.368-.336a5.284 5.284 0 01-1.808-1.024l.384-.816c.555.437 1.12.763 1.696.976.587.203 1.285.304 2.096.304 1.013 0 1.77-.197 2.272-.592.512-.395.768-.912.768-1.552 0-.533-.187-.95-.56-1.248-.363-.299-.965-.533-1.808-.704l-1.616-.336c-1.003-.203-1.755-.544-2.256-1.024-.49-.48-.736-1.12-.736-1.92 0-.65.165-1.221.496-1.712.341-.49.81-.87 1.408-1.136.597-.277 1.285-.416 2.064-.416 1.557 0 2.8.47 3.728 1.408l-.384.8c-.49-.459-1.003-.79-1.536-.992-.533-.213-1.136-.32-1.808-.32-.896 0-1.616.213-2.16.64-.533.427-.8.997-.8 1.712 0 .565.17 1.013.512 1.344.341.32.89.555 1.648.704l1.632.336c1.077.224 1.877.56 2.4 1.008.523.437.784 1.04.784 1.808 0 .608-.165 1.147-.496 1.616-.32.459-.784.821-1.392 1.088-.608.256-1.328.384-2.16.384zM92.14 46V35.6h-4.208v-.88h9.408v.88h-4.208V46h-.992zm15.946 0v-5.408l-4.304-5.872h1.152l3.664 5.008 3.68-5.008h1.104l-4.304 5.888V46h-.992zm13.18 0V34.72h.976v10.4h5.888V46h-6.864zm14.962 0V34.72h6.944v.848h-5.984v4.288h5.648v.848h-5.648v4.448h5.984V46h-6.944z" fill="#0C0F1E" fill-opacity=".2"/><path d="M76.992 46.128c-.875 0-1.664-.112-2.368-.336a5.284 5.284 0 01-1.808-1.024l.384-.816c.555.437 1.12.763 1.696.976.587.203 1.285.304 2.096.304 1.013 0 1.77-.197 2.272-.592.512-.395.768-.912.768-1.552 0-.533-.187-.95-.56-1.248-.363-.299-.965-.533-1.808-.704l-1.616-.336c-1.003-.203-1.755-.544-2.256-1.024-.49-.48-.736-1.12-.736-1.92 0-.65.165-1.221.496-1.712.341-.49.81-.87 1.408-1.136.597-.277 1.285-.416 2.064-.416 1.557 0 2.8.47 3.728 1.408l-.384.8c-.49-.459-1.003-.79-1.536-.992-.533-.213-1.136-.32-1.808-.32-.896 0-1.616.213-2.16.64-.533.427-.8.997-.8 1.712 0 .565.17 1.013.512 1.344.341.32.89.555 1.648.704l1.632.336c1.077.224 1.877.56 2.4 1.008.523.437.784 1.04.784 1.808 0 .608-.165 1.147-.496 1.616-.32.459-.784.821-1.392 1.088-.608.256-1.328.384-2.16.384zM92.14 46V35.6h-4.208v-.88h9.408v.88h-4.208V46h-.992zm15.946 0v-5.408l-4.304-5.872h1.152l3.664 5.008 3.68-5.008h1.104l-4.304 5.888V46h-.992zm13.18 0V34.72h.976v10.4h5.888V46h-6.864zm14.962 0V34.72h6.944v.848h-5.984v4.288h5.648v.848h-5.648v4.448h5.984V46h-6.944z" fill="#000" fill-opacity=".2"/><path d="M72 29.648h72.659v.624H72v-.624z" fill="#0C0F1E" fill-opacity=".4"/></svg>