<svg width="142" height="64" fill="none" xmlns="http://www.w3.org/2000/svg"><path fill="#fff" d="M0 0h142v64H0z"/><g opacity=".8" fill="#0C0F1E"><path opacity=".8" d="M36.25 14.45h.2c.3 0 .7 0 1 .1 1.5.1 3 .3 4.4.7v-3.6c-1.4-.4-3-.6-4.6-.7-.6 0-1.2-.1-1.8-.1h-.5c-3 0-6.1.4-9.1 1.2-3.6.8-6.9 2.2-9.8 3.9v35.3c2.8-1.5 6-2.8 9.3-3.6 2.6-.7 5.2-1.1 7.8-1.2h1.4v-3.6c-3.3 0-6.7.5-10.1 1.3-1.2.3-2.4.7-3.5 1l-1.3.4v-27.5l.5-.3c2-1 4.2-1.7 6.5-2.3 2.2-.6 4.5-.9 6.7-1h2.9z"/><path opacity=".5" d="M45.15 18.15c-.8 0-1.7 0-2.4-.1-1-.1-1.9-.2-2.8-.3-.6-.1-1.1-.2-1.7-.3v34.9c2.1.5 4.4.8 6.9.8 3 0 6.1-.4 9.1-1.2 3.5-.9 6.8-2.2 9.7-3.9v-34.7c-2.8 1.5-6 2.8-9.3 3.6-3.1.8-6.3 1.2-9.5 1.2zm14 .6l1.3-.4v27.5l-.5.3c-2 1-4.2 1.7-6.5 2.3-2.8.7-5.6 1.1-8.3 1.1-.8 0-1.7 0-2.5-.1l-.9-.1v-28.3l1 .1c.7 0 1.5.1 2.3.1 3.4 0 7-.5 10.5-1.3 1.3-.4 2.5-.8 3.6-1.2z"/></g><path d="M73.232 29V17.72h4.928c1.184 0 2.101.261 2.752.784.65.512.976 1.227.976 2.144 0 .608-.155 1.13-.464 1.568-.31.437-.736.757-1.28.96.64.181 1.136.501 1.488.96.363.448.544 1.019.544 1.712 0 1.003-.341 1.781-1.024 2.336-.672.544-1.61.816-2.816.816h-5.104zm1.968-6.496h2.608c1.397 0 2.096-.539 2.096-1.616s-.699-1.616-2.096-1.616H75.2v3.232zm0 4.944h2.88c1.408 0 2.112-.565 2.112-1.696 0-1.13-.704-1.696-2.112-1.696H75.2v3.392zm16.184 1.712c-1.088 0-2.043-.24-2.864-.72a4.922 4.922 0 01-1.888-2.016c-.448-.875-.672-1.899-.672-3.072 0-1.184.224-2.208.672-3.072a4.816 4.816 0 011.888-2c.81-.48 1.765-.72 2.864-.72 1.098 0 2.053.24 2.864.72.81.47 1.44 1.136 1.888 2 .448.864.672 1.883.672 3.056 0 1.184-.224 2.213-.672 3.088a4.922 4.922 0 01-1.888 2.016c-.811.48-1.766.72-2.864.72zm0-1.76c1.034 0 1.84-.357 2.416-1.072.576-.715.864-1.707.864-2.976 0-1.28-.288-2.272-.864-2.976-.566-.704-1.371-1.056-2.416-1.056-1.035 0-1.84.352-2.416 1.056-.576.704-.864 1.696-.864 2.976 0 1.27.288 2.261.864 2.976.576.715 1.381 1.072 2.416 1.072zm14.642 1.76c-1.088 0-2.043-.24-2.864-.72a4.92 4.92 0 01-1.888-2.016c-.448-.875-.672-1.899-.672-3.072 0-1.184.224-2.208.672-3.072a4.814 4.814 0 011.888-2c.811-.48 1.765-.72 2.864-.72s2.053.24 2.864.72a4.814 4.814 0 011.888 2c.448.864.672 1.883.672 3.056 0 1.184-.224 2.213-.672 3.088a4.92 4.92 0 01-1.888 2.016c-.811.48-1.765.72-2.864.72zm0-1.76c1.035 0 1.84-.357 2.416-1.072.576-.715.864-1.707.864-2.976 0-1.28-.288-2.272-.864-2.976-.565-.704-1.371-1.056-2.416-1.056-1.035 0-1.84.352-2.416 1.056-.576.704-.864 1.696-.864 2.976 0 1.27.288 2.261.864 2.976.576.715 1.381 1.072 2.416 1.072zm9.587 1.6V17.72h2.048v4.992h.032l4.976-4.992h2.496l-5.488 5.424 5.76 5.856h-2.528l-5.216-5.216h-.032V29h-2.048z" fill="#0C0F1E" fill-opacity=".4"/><path d="M77.072 45.144c-.885 0-1.696-.112-2.432-.336-.736-.235-1.36-.56-1.872-.976l.528-1.312c.533.405 1.104.71 1.712.912.608.203 1.296.304 2.064.304.907 0 1.573-.16 2-.48.437-.33.656-.757.656-1.28 0-.427-.155-.763-.464-1.008-.31-.256-.827-.459-1.552-.608L76 40.008c-1.013-.213-1.77-.565-2.272-1.056-.49-.49-.736-1.152-.736-1.984 0-.672.176-1.264.528-1.776.363-.512.864-.907 1.504-1.184.64-.288 1.376-.432 2.208-.432.768 0 1.477.117 2.128.352a4.477 4.477 0 011.68.992l-.544 1.264c-.907-.8-2-1.2-3.28-1.2-.79 0-1.419.176-1.888.528-.459.352-.688.821-.688 1.408 0 .448.144.805.432 1.072.288.267.768.47 1.44.608l1.696.352c1.067.224 1.861.57 2.384 1.04.523.459.784 1.083.784 1.872 0 .661-.176 1.237-.528 1.728-.352.49-.848.875-1.488 1.152-.64.267-1.403.4-2.288.4zm9.19-.144v-9.888h-4V33.72h9.649v1.392h-4V45h-1.648zm11.703.144c-1.078 0-2.01-.235-2.8-.704-.79-.48-1.403-1.152-1.84-2.016-.427-.875-.64-1.899-.64-3.072 0-1.184.213-2.208.64-3.072.437-.864 1.05-1.53 1.84-2s1.722-.704 2.8-.704c1.066 0 1.995.235 2.784.704a4.65 4.65 0 011.84 2c.437.864.656 1.883.656 3.056 0 1.184-.219 2.213-.656 3.088a4.747 4.747 0 01-1.84 2.016c-.79.47-1.718.704-2.784.704zm0-1.44c1.12 0 1.99-.379 2.608-1.136.629-.768.944-1.84.944-3.216 0-1.376-.309-2.443-.928-3.2-.619-.757-1.493-1.136-2.624-1.136-1.12 0-1.995.379-2.624 1.136-.619.757-.928 1.824-.928 3.2 0 1.376.31 2.448.928 3.216.63.757 1.504 1.136 2.624 1.136zm7.99 1.296V33.72h4.672c1.216 0 2.155.293 2.816.88.661.576.992 1.387.992 2.432 0 .843-.224 1.536-.672 2.08-.448.533-1.083.89-1.904 1.072.512.17.944.581 1.296 1.232L115.107 45h-1.824l-1.952-3.6c-.224-.416-.485-.693-.784-.832-.288-.15-.661-.224-1.12-.224h-1.808V45h-1.664zm1.664-5.904h2.736c1.643 0 2.464-.677 2.464-2.032 0-1.344-.821-2.016-2.464-2.016h-2.736v4.048zM117.263 45V33.72h7.296v1.344h-5.696V38.6h5.36v1.344h-5.36v3.712h5.696V45h-7.296z" fill="#0C0F1E" fill-opacity=".2"/><path d="M77.072 45.144c-.885 0-1.696-.112-2.432-.336-.736-.235-1.36-.56-1.872-.976l.528-1.312c.533.405 1.104.71 1.712.912.608.203 1.296.304 2.064.304.907 0 1.573-.16 2-.48.437-.33.656-.757.656-1.28 0-.427-.155-.763-.464-1.008-.31-.256-.827-.459-1.552-.608L76 40.008c-1.013-.213-1.77-.565-2.272-1.056-.49-.49-.736-1.152-.736-1.984 0-.672.176-1.264.528-1.776.363-.512.864-.907 1.504-1.184.64-.288 1.376-.432 2.208-.432.768 0 1.477.117 2.128.352a4.477 4.477 0 011.68.992l-.544 1.264c-.907-.8-2-1.2-3.28-1.2-.79 0-1.419.176-1.888.528-.459.352-.688.821-.688 1.408 0 .448.144.805.432 1.072.288.267.768.47 1.44.608l1.696.352c1.067.224 1.861.57 2.384 1.04.523.459.784 1.083.784 1.872 0 .661-.176 1.237-.528 1.728-.352.49-.848.875-1.488 1.152-.64.267-1.403.4-2.288.4zm9.19-.144v-9.888h-4V33.72h9.649v1.392h-4V45h-1.648zm11.703.144c-1.078 0-2.01-.235-2.8-.704-.79-.48-1.403-1.152-1.84-2.016-.427-.875-.64-1.899-.64-3.072 0-1.184.213-2.208.64-3.072.437-.864 1.05-1.53 1.84-2s1.722-.704 2.8-.704c1.066 0 1.995.235 2.784.704a4.65 4.65 0 011.84 2c.437.864.656 1.883.656 3.056 0 1.184-.219 2.213-.656 3.088a4.747 4.747 0 01-1.84 2.016c-.79.47-1.718.704-2.784.704zm0-1.44c1.12 0 1.99-.379 2.608-1.136.629-.768.944-1.84.944-3.216 0-1.376-.309-2.443-.928-3.2-.619-.757-1.493-1.136-2.624-1.136-1.12 0-1.995.379-2.624 1.136-.619.757-.928 1.824-.928 3.2 0 1.376.31 2.448.928 3.216.63.757 1.504 1.136 2.624 1.136zm7.99 1.296V33.72h4.672c1.216 0 2.155.293 2.816.88.661.576.992 1.387.992 2.432 0 .843-.224 1.536-.672 2.08-.448.533-1.083.89-1.904 1.072.512.17.944.581 1.296 1.232L115.107 45h-1.824l-1.952-3.6c-.224-.416-.485-.693-.784-.832-.288-.15-.661-.224-1.12-.224h-1.808V45h-1.664zm1.664-5.904h2.736c1.643 0 2.464-.677 2.464-2.032 0-1.344-.821-2.016-2.464-2.016h-2.736v4.048zM117.263 45V33.72h7.296v1.344h-5.696V38.6h5.36v1.344h-5.36v3.712h5.696V45h-7.296z" fill="#000" fill-opacity=".2"/></svg>