<svg width="151" height="64" fill="none" xmlns="http://www.w3.org/2000/svg"><path fill="#fff" d="M0 0h151v64H0z"/><g opacity=".8" fill="#0C0F1E"><path opacity=".8" d="M16.816 28.137s0 .1-.099.1c-2.275 6.428 3.264 20.57 16.714 20.57.692 0 1.384 0 2.175-.099.297 0 .594-.099.99-.099-2.374-1.384-4.352-3.263-5.934-5.637a13.353 13.353 0 01-1.484-2.571l-.297-.594v-.099a20.05 20.05 0 01-1.68-8.01c0-4.055 1.186-7.912 3.56-11.275.494-.79 1.087-1.483 1.78-2.175 1.978-2.176 4.549-3.857 7.318-4.945.89-.297 1.681-.594 2.572-.791 1.483-.297 2.966-.495 4.549-.495 3.56 0 7.022.99 9.988 2.77l-.099-.1-.098-.098-.1-.1-.098-.098-.1-.1c-2.471-2.472-6.823-4.252-10.087-5.24-2.967-.89-6.23-1.385-9.197-.792-1.286.297-2.176 1.582-3.066 2.473a518702.518 518702.518 0 00-15.626 15.625c-.593.594-1.384 1.187-1.681 1.78z"/><path opacity=".5" d="M63.395 35.257c.198-.395.297-.692.297-1.087.989-9.594-6.527-19.187-17.11-19.187-1.087 0-2.076.1-3.065.297 2.373 1.385 4.351 3.264 5.934 5.637 2.274 3.264 3.56 7.22 3.56 11.275 0 4.054-1.187 7.911-3.56 11.274-2.275 3.264-5.34 5.637-9 7.12-2.275.89-4.648 1.286-7.12 1.286-3.56 0-6.923-.989-9.99-2.769 7.814 7.417 14.835 7.912 19.978 5.835 3.066-3.264 6.527-6.33 9.791-9.494 1.978-1.88 3.956-3.758 5.934-5.736 1.286-1.187 3.461-2.67 4.351-4.45z"/></g><path d="M73.232 29V17.72h4.192c1.888 0 3.344.485 4.368 1.456 1.035.97 1.552 2.363 1.552 4.176 0 1.803-.517 3.195-1.552 4.176-1.024.981-2.48 1.472-4.368 1.472h-4.192zm2.048-1.696h2.016c2.603 0 3.904-1.317 3.904-3.952 0-2.624-1.301-3.936-3.904-3.936H75.28v7.888zM85.74 29V17.72h7.504v1.632h-5.537v3.104h5.184v1.632h-5.184v3.28h5.537V29H85.74zm13.598.16a8.655 8.655 0 01-2.464-.336c-.757-.235-1.397-.55-1.92-.944l.624-1.616a6.306 6.306 0 001.712.864 6.64 6.64 0 002.048.304c.843 0 1.456-.139 1.84-.416.384-.288.576-.656.576-1.104 0-.373-.139-.667-.416-.88-.267-.213-.731-.39-1.392-.528l-1.76-.368c-2.005-.427-3.008-1.456-3.008-3.088 0-.704.187-1.317.56-1.84.374-.523.89-.928 1.552-1.216.661-.288 1.424-.432 2.288-.432.768 0 1.488.117 2.16.352.672.224 1.232.544 1.68.96l-.624 1.536c-.885-.747-1.963-1.12-3.232-1.12-.736 0-1.312.155-1.728.464-.416.31-.624.715-.624 1.216 0 .384.128.693.384.928.256.224.694.4 1.312.528l1.744.368c1.056.224 1.84.576 2.352 1.056.523.48.784 1.12.784 1.92 0 .672-.181 1.264-.544 1.776-.363.512-.88.912-1.552 1.2-.661.277-1.445.416-2.352.416zm6.526-.16V17.72h2.048V29h-2.048zm10.244.16c-1.248 0-2.304-.235-3.168-.704a4.71 4.71 0 01-1.952-2c-.448-.864-.672-1.888-.672-3.072 0-1.195.229-2.224.688-3.088a4.761 4.761 0 011.984-2.016c.864-.48 1.899-.72 3.104-.72a6.89 6.89 0 012.224.352c.693.224 1.269.539 1.728.944l-.688 1.6a4.995 4.995 0 00-1.536-.848 5.545 5.545 0 00-1.728-.256c-1.195 0-2.101.347-2.72 1.04-.608.693-.912 1.69-.912 2.992 0 1.312.315 2.31.944 2.992.629.683 1.563 1.024 2.8 1.024a7.37 7.37 0 001.072-.08 7.969 7.969 0 001.104-.272v-2.624h-2.592v-1.52h4.304v5.424c-.523.256-1.141.459-1.856.608-.715.15-1.424.224-2.128.224zm6.677-.16V17.72h1.536l6.064 7.872V17.72h1.904V29h-1.52l-6.08-7.904V29h-1.904z" fill="#0C0F1E" fill-opacity=".4"/><path d="M77.072 45.144c-.885 0-1.696-.112-2.432-.336-.736-.235-1.36-.56-1.872-.976l.528-1.312c.533.405 1.104.71 1.712.912.608.203 1.296.304 2.064.304.907 0 1.573-.16 2-.48.437-.33.656-.757.656-1.28 0-.427-.155-.763-.464-1.008-.31-.256-.827-.459-1.552-.608L76 40.008c-1.013-.213-1.77-.565-2.272-1.056-.49-.49-.736-1.152-.736-1.984 0-.672.176-1.264.528-1.776.363-.512.864-.907 1.504-1.184.64-.288 1.376-.432 2.208-.432.768 0 1.477.117 2.128.352a4.477 4.477 0 011.68.992l-.544 1.264c-.907-.8-2-1.2-3.28-1.2-.79 0-1.419.176-1.888.528-.459.352-.688.821-.688 1.408 0 .448.144.805.432 1.072.288.267.768.47 1.44.608l1.696.352c1.067.224 1.861.57 2.384 1.04.523.459.784 1.083.784 1.872 0 .661-.176 1.237-.528 1.728-.352.49-.848.875-1.488 1.152-.64.267-1.403.4-2.288.4zm9.19-.144v-9.888h-4V33.72h9.649v1.392h-4V45h-1.648zm12.07.144c-1.504 0-2.656-.395-3.456-1.184-.79-.8-1.184-1.968-1.184-3.504V33.72h1.664v6.704c0 2.187.992 3.28 2.976 3.28s2.976-1.093 2.976-3.28V33.72h1.632v6.736c0 1.536-.389 2.704-1.168 3.504-.779.79-1.925 1.184-3.44 1.184zm7.654-.144V33.72h3.984c1.856 0 3.286.485 4.288 1.456 1.014.97 1.52 2.363 1.52 4.176 0 1.813-.506 3.21-1.52 4.192-1.002.97-2.432 1.456-4.288 1.456h-3.984zm1.664-1.392h2.224c2.784 0 4.176-1.419 4.176-4.256 0-2.827-1.392-4.24-4.176-4.24h-2.224v8.496zM118.482 45V33.72h1.664V45h-1.664zm9.642.144c-1.078 0-2.011-.235-2.8-.704-.79-.48-1.403-1.152-1.84-2.016-.427-.875-.64-1.899-.64-3.072 0-1.184.213-2.208.64-3.072.437-.864 1.05-1.53 1.84-2 .789-.47 1.722-.704 2.8-.704 1.066 0 1.994.235 2.784.704a4.65 4.65 0 011.84 2c.437.864.656 1.883.656 3.056 0 1.184-.219 2.213-.656 3.088a4.747 4.747 0 01-1.84 2.016c-.79.47-1.718.704-2.784.704zm0-1.44c1.12 0 1.989-.379 2.608-1.136.629-.768.944-1.84.944-3.216 0-1.376-.31-2.443-.928-3.2-.619-.757-1.494-1.136-2.624-1.136-1.12 0-1.995.379-2.624 1.136-.619.757-.928 1.824-.928 3.2 0 1.376.309 2.448.928 3.216.629.757 1.504 1.136 2.624 1.136z" fill="#0C0F1E" fill-opacity=".2"/><path d="M77.072 45.144c-.885 0-1.696-.112-2.432-.336-.736-.235-1.36-.56-1.872-.976l.528-1.312c.533.405 1.104.71 1.712.912.608.203 1.296.304 2.064.304.907 0 1.573-.16 2-.48.437-.33.656-.757.656-1.28 0-.427-.155-.763-.464-1.008-.31-.256-.827-.459-1.552-.608L76 40.008c-1.013-.213-1.77-.565-2.272-1.056-.49-.49-.736-1.152-.736-1.984 0-.672.176-1.264.528-1.776.363-.512.864-.907 1.504-1.184.64-.288 1.376-.432 2.208-.432.768 0 1.477.117 2.128.352a4.477 4.477 0 011.68.992l-.544 1.264c-.907-.8-2-1.2-3.28-1.2-.79 0-1.419.176-1.888.528-.459.352-.688.821-.688 1.408 0 .448.144.805.432 1.072.288.267.768.47 1.44.608l1.696.352c1.067.224 1.861.57 2.384 1.04.523.459.784 1.083.784 1.872 0 .661-.176 1.237-.528 1.728-.352.49-.848.875-1.488 1.152-.64.267-1.403.4-2.288.4zm9.19-.144v-9.888h-4V33.72h9.649v1.392h-4V45h-1.648zm12.07.144c-1.504 0-2.656-.395-3.456-1.184-.79-.8-1.184-1.968-1.184-3.504V33.72h1.664v6.704c0 2.187.992 3.28 2.976 3.28s2.976-1.093 2.976-3.28V33.72h1.632v6.736c0 1.536-.389 2.704-1.168 3.504-.779.79-1.925 1.184-3.44 1.184zm7.654-.144V33.72h3.984c1.856 0 3.286.485 4.288 1.456 1.014.97 1.52 2.363 1.52 4.176 0 1.813-.506 3.21-1.52 4.192-1.002.97-2.432 1.456-4.288 1.456h-3.984zm1.664-1.392h2.224c2.784 0 4.176-1.419 4.176-4.256 0-2.827-1.392-4.24-4.176-4.24h-2.224v8.496zM118.482 45V33.72h1.664V45h-1.664zm9.642.144c-1.078 0-2.011-.235-2.8-.704-.79-.48-1.403-1.152-1.84-2.016-.427-.875-.64-1.899-.64-3.072 0-1.184.213-2.208.64-3.072.437-.864 1.05-1.53 1.84-2 .789-.47 1.722-.704 2.8-.704 1.066 0 1.994.235 2.784.704a4.65 4.65 0 011.84 2c.437.864.656 1.883.656 3.056 0 1.184-.219 2.213-.656 3.088a4.747 4.747 0 01-1.84 2.016c-.79.47-1.718.704-2.784.704zm0-1.44c1.12 0 1.989-.379 2.608-1.136.629-.768.944-1.84.944-3.216 0-1.376-.31-2.443-.928-3.2-.619-.757-1.494-1.136-2.624-1.136-1.12 0-1.995.379-2.624 1.136-.619.757-.928 1.824-.928 3.2 0 1.376.309 2.448.928 3.216.629.757 1.504 1.136 2.624 1.136z" fill="#000" fill-opacity=".2"/></svg>