<svg width="198" height="64" fill="none" xmlns="http://www.w3.org/2000/svg"><path fill="#fff" d="M0 0h198v64H0z"/><g opacity=".8" fill="#0C0F1E"><path opacity=".5" d="M31.834 44.149l3.386 1.992 4.183-2.49-3.386-1.892v-28.88l-3.984-2.29-.299.199L16 19.85v4.78l15.834-9.161v28.68z"/><path opacity=".8" d="M43.983 12.88v30.273l-11.95 6.872-11.85-6.872V24.332L16 26.722v17.427l16.033 9.261 16.133-9.261v-28.68L64 24.63v-4.78l-16.033-9.26-3.984 2.29z"/><path opacity=".5" d="M45.976 47.435l-4.183 2.39 6.174 3.585 16.034-9.261V26.72l-4.183-2.39v17.427l-11.85 6.872-1.992-1.195z"/></g><path d="M73.312 28V16.72h1.664V28h-1.664zm5.226 0V16.72h1.264l6.464 8.528V16.72h1.536V28H86.57l-6.496-8.56V28h-1.536zm12.85 0V16.72h3.984c1.856 0 3.286.485 4.288 1.456 1.014.97 1.52 2.363 1.52 4.176 0 1.813-.506 3.21-1.52 4.192-1.002.97-2.432 1.456-4.288 1.456h-3.984zm1.664-1.392h2.224c2.784 0 4.176-1.419 4.176-4.256 0-2.827-1.392-4.24-4.176-4.24h-2.224v8.496zm15.872 1.536c-1.504 0-2.656-.395-3.456-1.184-.789-.8-1.184-1.968-1.184-3.504V16.72h1.664v6.704c0 2.187.992 3.28 2.976 3.28s2.976-1.093 2.976-3.28V16.72h1.632v6.736c0 1.536-.389 2.704-1.168 3.504-.779.79-1.925 1.184-3.44 1.184zm11.894 0c-.885 0-1.696-.112-2.432-.336-.736-.235-1.36-.56-1.872-.976l.528-1.312c.534.405 1.104.71 1.712.912.608.203 1.296.304 2.064.304.907 0 1.574-.16 2-.48.438-.33.656-.757.656-1.28 0-.427-.154-.763-.464-1.008-.309-.256-.826-.459-1.552-.608l-1.712-.352c-1.013-.213-1.77-.565-2.272-1.056-.49-.49-.736-1.152-.736-1.984 0-.672.176-1.264.528-1.776.363-.512.864-.907 1.504-1.184.64-.288 1.376-.432 2.208-.432.768 0 1.478.117 2.128.352a4.466 4.466 0 011.68.992l-.544 1.264c-.906-.8-2-1.2-3.28-1.2-.789 0-1.418.176-1.888.528-.458.352-.688.821-.688 1.408 0 .448.144.805.432 1.072.288.267.768.47 1.44.608l1.696.352c1.067.224 1.862.57 2.384 1.04.523.459.784 1.083.784 1.872 0 .661-.176 1.237-.528 1.728-.352.49-.848.875-1.488 1.152-.64.267-1.402.4-2.288.4zm9.671-.144v-9.888h-4V16.72h9.648v1.392h-4V28h-1.648zm7.989 0V16.72h4.672c1.216 0 2.155.293 2.816.88.662.576.992 1.387.992 2.432 0 .843-.224 1.536-.672 2.08-.448.533-1.082.89-1.904 1.072.512.17.944.581 1.296 1.232L147.63 28h-1.824l-1.952-3.6c-.224-.416-.485-.693-.784-.832-.288-.15-.661-.224-1.12-.224h-1.808V28h-1.664zm1.664-5.904h2.736c1.643 0 2.464-.677 2.464-2.032 0-1.344-.821-2.016-2.464-2.016h-2.736v4.048zM150.266 28V16.72h1.664V28h-1.664zm4.09 0l5.024-11.28h1.376l5.04 11.28H164.1l-1.184-2.752h-5.712L156.036 28h-1.68zm5.696-9.44l-2.256 5.344h4.56l-2.272-5.344h-.032zm8.181 9.44V16.72h1.664v9.856h5.584V28h-7.248z" fill="#0C0F1E" fill-opacity=".4"/><path d="M73.472 46V34.72h6.944v.848h-5.984v4.288h5.648v.848h-5.648v4.448h5.984V46h-6.944zm9.219 0V34.72h.784l7.136 9.616V34.72h.912V46h-.768l-7.152-9.632V46h-.912zm16.789.128c-1.781 0-3.136-.507-4.064-1.52-.928-1.013-1.392-2.432-1.392-4.256 0-1.184.203-2.208.608-3.072.416-.864 1.008-1.525 1.776-1.984.779-.47 1.717-.704 2.816-.704 1.632 0 2.933.485 3.904 1.456l-.432.8c-.523-.48-1.061-.821-1.616-1.024-.555-.213-1.179-.32-1.872-.32-1.333 0-2.357.427-3.072 1.28-.715.843-1.072 2.032-1.072 3.568 0 1.59.368 2.8 1.104 3.632.747.832 1.856 1.248 3.328 1.248 1.003 0 1.936-.17 2.8-.512v-3.664h-2.992v-.832h3.872v5.136a5.17 5.17 0 01-1.04.4 9.186 9.186 0 01-1.312.272 9.725 9.725 0 01-1.344.096zm6.539-.128V34.72h.976V46h-.976zm3.922 0V34.72h.784l7.136 9.616V34.72h.912V46h-.768l-7.152-9.632V46h-.912zm11.781 0V34.72h6.944v.848h-5.984v4.288h5.648v.848h-5.648v4.448h5.984V46h-6.944zm9.219 0V34.72h6.944v.848h-5.984v4.288h5.648v.848h-5.648v4.448h5.984V46h-6.944zm9.219 0V34.72h4.256c1.205 0 2.122.277 2.752.832.64.555.96 1.344.96 2.368 0 .843-.23 1.525-.688 2.048-.459.523-1.11.859-1.952 1.008.458.17.864.587 1.216 1.248L148.752 46h-1.072l-1.952-3.616c-.278-.501-.587-.837-.928-1.008-.342-.17-.8-.256-1.376-.256h-2.288V46h-.976zm.976-5.712h3.152c1.898 0 2.847-.79 2.847-2.368 0-1.568-.949-2.352-2.847-2.352h-3.152v4.72zM150.738 46V34.72h.976V46h-.976zm3.922 0V34.72h.784l7.136 9.616V34.72h.912V46h-.768l-7.152-9.632V46h-.912zm16.789.128c-1.782 0-3.136-.507-4.064-1.52-.928-1.013-1.392-2.432-1.392-4.256 0-1.184.202-2.208.608-3.072.416-.864 1.008-1.525 1.776-1.984.778-.47 1.717-.704 2.816-.704 1.632 0 2.933.485 3.904 1.456l-.432.8c-.523-.48-1.062-.821-1.616-1.024-.555-.213-1.179-.32-1.872-.32-1.334 0-2.358.427-3.072 1.28-.715.843-1.072 2.032-1.072 3.568 0 1.59.368 2.8 1.104 3.632.746.832 1.856 1.248 3.328 1.248 1.002 0 1.936-.17 2.8-.512v-3.664h-2.992v-.832h3.872v5.136c-.278.15-.624.283-1.04.4a9.214 9.214 0 01-1.312.272 9.728 9.728 0 01-1.344.096z" fill="#0C0F1E" fill-opacity=".2"/><path d="M73.472 46V34.72h6.944v.848h-5.984v4.288h5.648v.848h-5.648v4.448h5.984V46h-6.944zm9.219 0V34.72h.784l7.136 9.616V34.72h.912V46h-.768l-7.152-9.632V46h-.912zm16.789.128c-1.781 0-3.136-.507-4.064-1.52-.928-1.013-1.392-2.432-1.392-4.256 0-1.184.203-2.208.608-3.072.416-.864 1.008-1.525 1.776-1.984.779-.47 1.717-.704 2.816-.704 1.632 0 2.933.485 3.904 1.456l-.432.8c-.523-.48-1.061-.821-1.616-1.024-.555-.213-1.179-.32-1.872-.32-1.333 0-2.357.427-3.072 1.28-.715.843-1.072 2.032-1.072 3.568 0 1.59.368 2.8 1.104 3.632.747.832 1.856 1.248 3.328 1.248 1.003 0 1.936-.17 2.8-.512v-3.664h-2.992v-.832h3.872v5.136a5.17 5.17 0 01-1.04.4 9.186 9.186 0 01-1.312.272 9.725 9.725 0 01-1.344.096zm6.539-.128V34.72h.976V46h-.976zm3.922 0V34.72h.784l7.136 9.616V34.72h.912V46h-.768l-7.152-9.632V46h-.912zm11.781 0V34.72h6.944v.848h-5.984v4.288h5.648v.848h-5.648v4.448h5.984V46h-6.944zm9.219 0V34.72h6.944v.848h-5.984v4.288h5.648v.848h-5.648v4.448h5.984V46h-6.944zm9.219 0V34.72h4.256c1.205 0 2.122.277 2.752.832.64.555.96 1.344.96 2.368 0 .843-.23 1.525-.688 2.048-.459.523-1.11.859-1.952 1.008.458.17.864.587 1.216 1.248L148.752 46h-1.072l-1.952-3.616c-.278-.501-.587-.837-.928-1.008-.342-.17-.8-.256-1.376-.256h-2.288V46h-.976zm.976-5.712h3.152c1.898 0 2.847-.79 2.847-2.368 0-1.568-.949-2.352-2.847-2.352h-3.152v4.72zM150.738 46V34.72h.976V46h-.976zm3.922 0V34.72h.784l7.136 9.616V34.72h.912V46h-.768l-7.152-9.632V46h-.912zm16.789.128c-1.782 0-3.136-.507-4.064-1.52-.928-1.013-1.392-2.432-1.392-4.256 0-1.184.202-2.208.608-3.072.416-.864 1.008-1.525 1.776-1.984.778-.47 1.717-.704 2.816-.704 1.632 0 2.933.485 3.904 1.456l-.432.8c-.523-.48-1.062-.821-1.616-1.024-.555-.213-1.179-.32-1.872-.32-1.334 0-2.358.427-3.072 1.28-.715.843-1.072 2.032-1.072 3.568 0 1.59.368 2.8 1.104 3.632.746.832 1.856 1.248 3.328 1.248 1.002 0 1.936-.17 2.8-.512v-3.664h-2.992v-.832h3.872v5.136c-.278.15-.624.283-1.04.4a9.214 9.214 0 01-1.312.272 9.728 9.728 0 01-1.344.096z" fill="#000" fill-opacity=".2"/><path d="M72 29.648h104.713v.624H72v-.624z" fill="#0C0F1E" fill-opacity=".4"/></svg>