<svg width="178" height="64" fill="none" xmlns="http://www.w3.org/2000/svg"><path fill="#fff" d="M0 0h178v64H0z"/><g opacity=".8" fill="#0C0F1E"><path opacity=".5" d="M57.2 14.8c-2.7-2.8-6.4-4.3-10.3-4.3-3.9 0-7.6 1.5-10.3 4.3-2.2 2.2-3.5 4.9-4.1 7.8-.1.3-.1.6-.1.9 0 .3-.1.6-.1.9v15.3h12.6V37H35V24.3c0-.3 0-.6.1-.9 0-.3.1-.6.2-.9.5-2.3 1.6-4.3 3.2-5.9 2.2-2.2 5.1-3.5 8.4-3.5 6.6 0 11.9 5.3 11.9 11.9 0 3.3-1.3 6.2-3.5 8.4-1.6 1.6-3.6 2.7-5.9 3.2v2.7c2.9-.5 5.6-1.9 7.8-4.1 2.8-2.8 4.3-6.4 4.3-10.3 0-3.7-1.5-7.4-4.3-10.1z"/><path opacity=".8" d="M35 27h9.9v12.7c0 .3 0 .6-.1.9 0 .3-.1.6-.2.9-.5 2.3-1.6 4.3-3.2 5.9-2.2 2.2-5.1 3.5-8.4 3.5-6.6 0-11.9-5.3-11.9-11.9 0-3.3 1.3-6.2 3.5-8.4 1.6-1.6 3.6-2.7 5.9-3.2v-2.7c-2.9.5-5.6 1.9-7.8 4.1-2.7 2.6-4.2 6.2-4.2 10.1 0 3.9 1.5 7.6 4.3 10.3 2.8 2.8 6.4 4.3 10.3 4.3 3.9 0 7.6-1.5 10.3-4.3 2.6-2.6 4.1-6 4.3-9.6V24.3H35.1v.7l-.1 2z"/></g><path d="M73.232 29V17.72h4.192c1.888 0 3.344.485 4.368 1.456 1.035.97 1.552 2.363 1.552 4.176 0 1.803-.517 3.195-1.552 4.176-1.024.981-2.48 1.472-4.368 1.472h-4.192zm2.048-1.696h2.016c2.603 0 3.904-1.317 3.904-3.952 0-2.624-1.301-3.936-3.904-3.936H75.28v7.888zM85.74 29V17.72h7.504v1.632h-5.537v3.104h5.184v1.632h-5.184v3.28h5.537V29H85.74zm13.598.16a8.655 8.655 0 01-2.464-.336c-.757-.235-1.397-.55-1.92-.944l.624-1.616a6.306 6.306 0 001.712.864 6.64 6.64 0 002.048.304c.843 0 1.456-.139 1.84-.416.384-.288.576-.656.576-1.104 0-.373-.139-.667-.416-.88-.267-.213-.731-.39-1.392-.528l-1.76-.368c-2.005-.427-3.008-1.456-3.008-3.088 0-.704.187-1.317.56-1.84.374-.523.89-.928 1.552-1.216.661-.288 1.424-.432 2.288-.432.768 0 1.488.117 2.16.352.672.224 1.232.544 1.68.96l-.624 1.536c-.885-.747-1.963-1.12-3.232-1.12-.736 0-1.312.155-1.728.464-.416.31-.624.715-.624 1.216 0 .384.128.693.384.928.256.224.694.4 1.312.528l1.744.368c1.056.224 1.84.576 2.352 1.056.523.48.784 1.12.784 1.92 0 .672-.181 1.264-.544 1.776-.363.512-.88.912-1.552 1.2-.661.277-1.445.416-2.352.416zm6.526-.16V17.72h2.048V29h-2.048zm10.244.16c-1.248 0-2.304-.235-3.168-.704a4.71 4.71 0 01-1.952-2c-.448-.864-.672-1.888-.672-3.072 0-1.195.229-2.224.688-3.088a4.761 4.761 0 011.984-2.016c.864-.48 1.899-.72 3.104-.72a6.89 6.89 0 012.224.352c.693.224 1.269.539 1.728.944l-.688 1.6a4.995 4.995 0 00-1.536-.848 5.545 5.545 0 00-1.728-.256c-1.195 0-2.101.347-2.72 1.04-.608.693-.912 1.69-.912 2.992 0 1.312.315 2.31.944 2.992.629.683 1.563 1.024 2.8 1.024a7.37 7.37 0 001.072-.08 7.969 7.969 0 001.104-.272v-2.624h-2.592v-1.52h4.304v5.424c-.523.256-1.141.459-1.856.608-.715.15-1.424.224-2.128.224zm6.677-.16V17.72h1.536l6.064 7.872V17.72h1.904V29h-1.52l-6.08-7.904V29h-1.904z" fill="#0C0F1E" fill-opacity=".4"/><path d="M73.312 45V33.72h7.296v1.344h-5.696V38.6h5.36v1.344h-5.36v3.712h5.696V45h-7.296zm8.544 0l4.304-5.76-4.128-5.52h1.92l3.152 4.304 3.12-4.304h1.936l-4.128 5.52L92.32 45h-1.936l-3.296-4.512L83.808 45h-1.952zm16.925.144c-1.141 0-2.117-.235-2.928-.704a4.715 4.715 0 01-1.872-2c-.426-.875-.64-1.904-.64-3.088 0-1.184.214-2.208.64-3.072a4.715 4.715 0 011.872-2c.81-.47 1.787-.704 2.928-.704.768 0 1.483.123 2.144.368.672.235 1.232.576 1.68 1.024l-.576 1.328c-.491-.437-.997-.752-1.52-.944a4.523 4.523 0 00-1.68-.304c-1.216 0-2.144.373-2.784 1.12-.64.747-.96 1.808-.96 3.184 0 1.376.32 2.443.96 3.2.64.747 1.568 1.12 2.784 1.12.608 0 1.168-.096 1.68-.288.523-.203 1.029-.523 1.52-.96l.576 1.328c-.448.437-1.008.779-1.68 1.024a6.115 6.115 0 01-2.144.368zm6.237-.144V33.72h1.664v9.856h5.584V45h-7.248zm13.43.144c-1.504 0-2.656-.395-3.456-1.184-.789-.8-1.184-1.968-1.184-3.504V33.72h1.664v6.704c0 2.187.992 3.28 2.976 3.28s2.976-1.093 2.976-3.28V33.72h1.632v6.736c0 1.536-.389 2.704-1.168 3.504-.778.79-1.925 1.184-3.44 1.184zm11.415 0c-.886 0-1.696-.112-2.432-.336-.736-.235-1.36-.56-1.872-.976l.528-1.312c.533.405 1.104.71 1.712.912.608.203 1.296.304 2.064.304.906 0 1.573-.16 2-.48.437-.33.656-.757.656-1.28 0-.427-.155-.763-.464-1.008-.31-.256-.827-.459-1.552-.608l-1.712-.352c-1.014-.213-1.771-.565-2.272-1.056-.491-.49-.736-1.152-.736-1.984 0-.672.176-1.264.528-1.776.362-.512.864-.907 1.504-1.184.64-.288 1.376-.432 2.208-.432a6.23 6.23 0 012.128.352 4.482 4.482 0 011.68.992l-.544 1.264c-.907-.8-2-1.2-3.28-1.2-.79 0-1.419.176-1.888.528-.459.352-.688.821-.688 1.408 0 .448.144.805.432 1.072.288.267.768.47 1.44.608l1.696.352c1.066.224 1.861.57 2.384 1.04.522.459.784 1.083.784 1.872 0 .661-.176 1.237-.528 1.728-.352.49-.848.875-1.488 1.152-.64.267-1.403.4-2.288.4zm6.673-.144V33.72h1.664V45h-1.664zm8.313 0l-4.976-11.28h1.776l3.952 9.184 3.952-9.184h1.696L146.273 45h-1.424zm8.115 0V33.72h7.296v1.344h-5.696V38.6h5.36v1.344h-5.36v3.712h5.696V45h-7.296z" fill="#0C0F1E" fill-opacity=".2"/><path d="M73.312 45V33.72h7.296v1.344h-5.696V38.6h5.36v1.344h-5.36v3.712h5.696V45h-7.296zm8.544 0l4.304-5.76-4.128-5.52h1.92l3.152 4.304 3.12-4.304h1.936l-4.128 5.52L92.32 45h-1.936l-3.296-4.512L83.808 45h-1.952zm16.925.144c-1.141 0-2.117-.235-2.928-.704a4.715 4.715 0 01-1.872-2c-.426-.875-.64-1.904-.64-3.088 0-1.184.214-2.208.64-3.072a4.715 4.715 0 011.872-2c.81-.47 1.787-.704 2.928-.704.768 0 1.483.123 2.144.368.672.235 1.232.576 1.68 1.024l-.576 1.328c-.491-.437-.997-.752-1.52-.944a4.523 4.523 0 00-1.68-.304c-1.216 0-2.144.373-2.784 1.12-.64.747-.96 1.808-.96 3.184 0 1.376.32 2.443.96 3.2.64.747 1.568 1.12 2.784 1.12.608 0 1.168-.096 1.68-.288.523-.203 1.029-.523 1.52-.96l.576 1.328c-.448.437-1.008.779-1.68 1.024a6.115 6.115 0 01-2.144.368zm6.237-.144V33.72h1.664v9.856h5.584V45h-7.248zm13.43.144c-1.504 0-2.656-.395-3.456-1.184-.789-.8-1.184-1.968-1.184-3.504V33.72h1.664v6.704c0 2.187.992 3.28 2.976 3.28s2.976-1.093 2.976-3.28V33.72h1.632v6.736c0 1.536-.389 2.704-1.168 3.504-.778.79-1.925 1.184-3.44 1.184zm11.415 0c-.886 0-1.696-.112-2.432-.336-.736-.235-1.36-.56-1.872-.976l.528-1.312c.533.405 1.104.71 1.712.912.608.203 1.296.304 2.064.304.906 0 1.573-.16 2-.48.437-.33.656-.757.656-1.28 0-.427-.155-.763-.464-1.008-.31-.256-.827-.459-1.552-.608l-1.712-.352c-1.014-.213-1.771-.565-2.272-1.056-.491-.49-.736-1.152-.736-1.984 0-.672.176-1.264.528-1.776.362-.512.864-.907 1.504-1.184.64-.288 1.376-.432 2.208-.432a6.23 6.23 0 012.128.352 4.482 4.482 0 011.68.992l-.544 1.264c-.907-.8-2-1.2-3.28-1.2-.79 0-1.419.176-1.888.528-.459.352-.688.821-.688 1.408 0 .448.144.805.432 1.072.288.267.768.47 1.44.608l1.696.352c1.066.224 1.861.57 2.384 1.04.522.459.784 1.083.784 1.872 0 .661-.176 1.237-.528 1.728-.352.49-.848.875-1.488 1.152-.64.267-1.403.4-2.288.4zm6.673-.144V33.72h1.664V45h-1.664zm8.313 0l-4.976-11.28h1.776l3.952 9.184 3.952-9.184h1.696L146.273 45h-1.424zm8.115 0V33.72h7.296v1.344h-5.696V38.6h5.36v1.344h-5.36v3.712h5.696V45h-7.296z" fill="#000" fill-opacity=".2"/></svg>