<svg width="159" height="64" fill="none" xmlns="http://www.w3.org/2000/svg"><path fill="#fff" d="M0 0h159v64H0z"/><g opacity=".8"><path d="M29.8 24.6L45.9 8.5l-6.4 1.8c-6.7 1.8-12.3 5-16.7 9.4l-5 5c1.6 1.6 3.8 2.5 6 2.5s4.4-.9 6-2.6zm-5.3-3.4c3.7-3.7 8.3-6.5 13.8-8.2l-10 10c-1.2 1.2-2.7 1.8-4.4 1.8-.9 0-1.7-.2-2.5-.5l3.1-3.1z" fill="#0C0F1E" fill-opacity=".4"/><path d="M29.8 24.6L45.9 8.5l-6.4 1.8c-6.7 1.8-12.3 5-16.7 9.4l-5 5c1.6 1.6 3.8 2.5 6 2.5s4.4-.9 6-2.6zm-5.3-3.4c3.7-3.7 8.3-6.5 13.8-8.2l-10 10c-1.2 1.2-2.7 1.8-4.4 1.8-.9 0-1.7-.2-2.5-.5l3.1-3.1z" fill="#000" fill-opacity=".2"/><path d="M27.7 49.1l5 5c1.6-1.6 2.5-3.8 2.5-6s-.8-4.3-2.5-6L16.5 26l1.8 6.4c1.8 6.7 4.9 12.3 9.4 16.7zm3.3-5.4c1.8 1.8 2.3 4.6 1.3 6.8l-3.1-3.1c-3.7-3.7-6.5-8.3-8.2-13.8l10 10.1z" fill="#0C0F1E" fill-opacity=".2"/><path d="M27.7 49.1l5 5c1.6-1.6 2.5-3.8 2.5-6s-.8-4.3-2.5-6L16.5 26l1.8 6.4c1.8 6.7 4.9 12.3 9.4 16.7zm3.3-5.4c1.8 1.8 2.3 4.6 1.3 6.8l-3.1-3.1c-3.7-3.7-6.5-8.3-8.2-13.8l10 10.1z" fill="#000" fill-opacity=".2"/><path d="M56.1 36.9c-2.2 0-4.3.8-6 2.5l-16 16.1 6.4-1.8c6.7-1.8 12.3-5 16.7-9.4l5-5c-.8-.8-1.8-1.4-2.8-1.9-1.1-.3-2.2-.5-3.3-.5zm-.6 5.9c-3.7 3.7-8.3 6.5-13.8 8.2l10-10c1.2-1.2 2.7-1.8 4.4-1.8.9 0 1.7.2 2.5.5l-3.1 3.1z" fill="#0C0F1E" fill-opacity=".4"/><path d="M56.1 36.9c-2.2 0-4.3.8-6 2.5l-16 16.1 6.4-1.8c6.7-1.8 12.3-5 16.7-9.4l5-5c-.8-.8-1.8-1.4-2.8-1.9-1.1-.3-2.2-.5-3.3-.5zm-.6 5.9c-3.7 3.7-8.3 6.5-13.8 8.2l10-10c1.2-1.2 2.7-1.8 4.4-1.8.9 0 1.7.2 2.5.5l-3.1 3.1z" fill="#000" fill-opacity=".2"/><path d="M47.4 21.9L63.5 38l-1.8-6.4c-1.8-6.7-5-12.3-9.4-16.7l-5-5c-3.2 3.3-3.2 8.7.1 12zm.3-8.5l3.1 3.1c3.7 3.7 6.5 8.3 8.2 13.8l-10-10c-1.9-1.9-2.3-4.6-1.3-6.9z" fill="#0C0F1E" fill-opacity=".2"/><path d="M47.4 21.9L63.5 38l-1.8-6.4c-1.8-6.7-5-12.3-9.4-16.7l-5-5c-3.2 3.3-3.2 8.7.1 12zm.3-8.5l3.1 3.1c3.7 3.7 6.5 8.3 8.2 13.8l-10-10c-1.9-1.9-2.3-4.6-1.3-6.9z" fill="#000" fill-opacity=".2"/></g><path d="M81.278 29.5V16.81h2.79v10.332h5.868V29.5h-8.658zm19.281.198c-1.248 0-2.346-.27-3.294-.81a5.833 5.833 0 01-2.196-2.286c-.516-.984-.774-2.136-.774-3.456 0-1.32.258-2.466.774-3.438a5.678 5.678 0 012.196-2.286c.936-.54 2.034-.81 3.294-.81 1.26 0 2.358.27 3.294.81a5.526 5.526 0 012.196 2.286c.528.972.792 2.112.792 3.42 0 1.32-.264 2.472-.792 3.456a5.644 5.644 0 01-2.196 2.304c-.936.54-2.034.81-3.294.81zm0-2.376c1.056 0 1.878-.366 2.466-1.098.6-.744.9-1.77.9-3.078 0-1.32-.294-2.34-.882-3.06-.588-.732-1.416-1.098-2.484-1.098-1.044 0-1.866.366-2.466 1.098-.588.72-.882 1.74-.882 3.06 0 1.308.294 2.334.882 3.078.6.732 1.422 1.098 2.466 1.098zm18.502 2.376c-1.428 0-2.64-.27-3.636-.81a5.464 5.464 0 01-2.25-2.268c-.516-.972-.774-2.112-.774-3.42 0-1.344.264-2.508.792-3.492a5.61 5.61 0 012.322-2.286c1.008-.54 2.22-.81 3.636-.81.888 0 1.728.126 2.52.378.804.252 1.458.588 1.962 1.008l-.9 2.178a5.391 5.391 0 00-1.692-.864c-.576-.18-1.2-.27-1.872-.27-1.284 0-2.25.36-2.898 1.08-.636.708-.954 1.734-.954 3.078 0 1.356.324 2.382.972 3.078.66.696 1.632 1.044 2.916 1.044.684 0 1.404-.108 2.16-.324v-2.484h-2.736v-2.016h5.04v6.228c-.624.312-1.344.552-2.16.72a12.11 12.11 0 01-2.448.252zm16.744 0c-1.248 0-2.346-.27-3.294-.81a5.833 5.833 0 01-2.196-2.286c-.516-.984-.774-2.136-.774-3.456 0-1.32.258-2.466.774-3.438a5.678 5.678 0 012.196-2.286c.936-.54 2.034-.81 3.294-.81 1.26 0 2.358.27 3.294.81a5.526 5.526 0 012.196 2.286c.528.972.792 2.112.792 3.42 0 1.32-.264 2.472-.792 3.456a5.644 5.644 0 01-2.196 2.304c-.936.54-2.034.81-3.294.81zm0-2.376c1.056 0 1.878-.366 2.466-1.098.6-.744.9-1.77.9-3.078 0-1.32-.294-2.34-.882-3.06-.588-.732-1.416-1.098-2.484-1.098-1.044 0-1.866.366-2.466 1.098-.588.72-.882 1.74-.882 3.06 0 1.308.294 2.334.882 3.078.6.732 1.422 1.098 2.466 1.098z" fill="#0C0F1E" fill-opacity=".4"/><path d="M81.278 29.5V16.81h2.79v10.332h5.868V29.5h-8.658zm19.281.198c-1.248 0-2.346-.27-3.294-.81a5.833 5.833 0 01-2.196-2.286c-.516-.984-.774-2.136-.774-3.456 0-1.32.258-2.466.774-3.438a5.678 5.678 0 012.196-2.286c.936-.54 2.034-.81 3.294-.81 1.26 0 2.358.27 3.294.81a5.526 5.526 0 012.196 2.286c.528.972.792 2.112.792 3.42 0 1.32-.264 2.472-.792 3.456a5.644 5.644 0 01-2.196 2.304c-.936.54-2.034.81-3.294.81zm0-2.376c1.056 0 1.878-.366 2.466-1.098.6-.744.9-1.77.9-3.078 0-1.32-.294-2.34-.882-3.06-.588-.732-1.416-1.098-2.484-1.098-1.044 0-1.866.366-2.466 1.098-.588.72-.882 1.74-.882 3.06 0 1.308.294 2.334.882 3.078.6.732 1.422 1.098 2.466 1.098zm18.502 2.376c-1.428 0-2.64-.27-3.636-.81a5.464 5.464 0 01-2.25-2.268c-.516-.972-.774-2.112-.774-3.42 0-1.344.264-2.508.792-3.492a5.61 5.61 0 012.322-2.286c1.008-.54 2.22-.81 3.636-.81.888 0 1.728.126 2.52.378.804.252 1.458.588 1.962 1.008l-.9 2.178a5.391 5.391 0 00-1.692-.864c-.576-.18-1.2-.27-1.872-.27-1.284 0-2.25.36-2.898 1.08-.636.708-.954 1.734-.954 3.078 0 1.356.324 2.382.972 3.078.66.696 1.632 1.044 2.916 1.044.684 0 1.404-.108 2.16-.324v-2.484h-2.736v-2.016h5.04v6.228c-.624.312-1.344.552-2.16.72a12.11 12.11 0 01-2.448.252zm16.744 0c-1.248 0-2.346-.27-3.294-.81a5.833 5.833 0 01-2.196-2.286c-.516-.984-.774-2.136-.774-3.456 0-1.32.258-2.466.774-3.438a5.678 5.678 0 012.196-2.286c.936-.54 2.034-.81 3.294-.81 1.26 0 2.358.27 3.294.81a5.526 5.526 0 012.196 2.286c.528.972.792 2.112.792 3.42 0 1.32-.264 2.472-.792 3.456a5.644 5.644 0 01-2.196 2.304c-.936.54-2.034.81-3.294.81zm0-2.376c1.056 0 1.878-.366 2.466-1.098.6-.744.9-1.77.9-3.078 0-1.32-.294-2.34-.882-3.06-.588-.732-1.416-1.098-2.484-1.098-1.044 0-1.866.366-2.466 1.098-.588.72-.882 1.74-.882 3.06 0 1.308.294 2.334.882 3.078.6.732 1.422 1.098 2.466 1.098z" fill="#000" fill-opacity=".2"/><path d="M81.312 45.5V34.22h3.984c1.856 0 3.285.485 4.288 1.456 1.013.97 1.52 2.363 1.52 4.176 0 1.813-.507 3.21-1.52 4.192-1.003.97-2.432 1.456-4.288 1.456h-3.984zm1.664-1.392H85.2c2.784 0 4.176-1.419 4.176-4.256 0-2.827-1.392-4.24-4.176-4.24h-2.224v8.496zM93.808 45.5V34.22h7.296v1.344h-5.696V39.1h5.36v1.344h-5.36v3.712h5.696V45.5h-7.296zm13.505.144c-.885 0-1.696-.112-2.432-.336-.736-.235-1.36-.56-1.872-.976l.528-1.312c.534.405 1.104.71 1.712.912.608.203 1.296.304 2.064.304.907 0 1.574-.16 2-.48.438-.33.656-.757.656-1.28 0-.427-.154-.763-.464-1.008-.309-.256-.826-.459-1.552-.608l-1.712-.352c-1.013-.213-1.77-.565-2.272-1.056-.49-.49-.736-1.152-.736-1.984 0-.672.176-1.264.528-1.776.363-.512.864-.907 1.504-1.184.64-.288 1.376-.432 2.208-.432.768 0 1.478.117 2.128.352a4.466 4.466 0 011.68.992l-.544 1.264c-.906-.8-2-1.2-3.28-1.2-.789 0-1.418.176-1.888.528-.458.352-.688.821-.688 1.408 0 .448.144.805.432 1.072.288.267.768.47 1.44.608l1.696.352c1.067.224 1.862.57 2.384 1.04.523.459.784 1.083.784 1.872 0 .661-.176 1.237-.528 1.728-.352.49-.848.875-1.488 1.152-.64.267-1.402.4-2.288.4zm6.673-.144V34.22h1.664V45.5h-1.664zm10.026.144c-1.227 0-2.261-.23-3.104-.688a4.631 4.631 0 01-1.92-2c-.427-.864-.64-1.893-.64-3.088 0-1.184.219-2.208.656-3.072a4.638 4.638 0 011.904-2.016c.832-.47 1.829-.704 2.992-.704a6.8 6.8 0 012.224.352c.683.235 1.253.57 1.712 1.008l-.592 1.296c-.512-.427-1.035-.73-1.568-.912a5.21 5.21 0 00-1.776-.288c-1.248 0-2.197.379-2.848 1.136-.651.747-.976 1.813-.976 3.2 0 1.419.331 2.496.992 3.232.672.736 1.675 1.104 3.008 1.104.811 0 1.616-.133 2.416-.4V40.78h-2.752v-1.248h4.144v5.312c-.48.235-1.077.427-1.792.576a9.958 9.958 0 01-2.08.224zm6.903-.144V34.22h1.264l6.464 8.528V34.22h1.536V45.5h-1.232l-6.496-8.56v8.56h-1.536z" fill="#0C0F1E" fill-opacity=".2"/><path d="M81.312 45.5V34.22h3.984c1.856 0 3.285.485 4.288 1.456 1.013.97 1.52 2.363 1.52 4.176 0 1.813-.507 3.21-1.52 4.192-1.003.97-2.432 1.456-4.288 1.456h-3.984zm1.664-1.392H85.2c2.784 0 4.176-1.419 4.176-4.256 0-2.827-1.392-4.24-4.176-4.24h-2.224v8.496zM93.808 45.5V34.22h7.296v1.344h-5.696V39.1h5.36v1.344h-5.36v3.712h5.696V45.5h-7.296zm13.505.144c-.885 0-1.696-.112-2.432-.336-.736-.235-1.36-.56-1.872-.976l.528-1.312c.534.405 1.104.71 1.712.912.608.203 1.296.304 2.064.304.907 0 1.574-.16 2-.48.438-.33.656-.757.656-1.28 0-.427-.154-.763-.464-1.008-.309-.256-.826-.459-1.552-.608l-1.712-.352c-1.013-.213-1.77-.565-2.272-1.056-.49-.49-.736-1.152-.736-1.984 0-.672.176-1.264.528-1.776.363-.512.864-.907 1.504-1.184.64-.288 1.376-.432 2.208-.432.768 0 1.478.117 2.128.352a4.466 4.466 0 011.68.992l-.544 1.264c-.906-.8-2-1.2-3.28-1.2-.789 0-1.418.176-1.888.528-.458.352-.688.821-.688 1.408 0 .448.144.805.432 1.072.288.267.768.47 1.44.608l1.696.352c1.067.224 1.862.57 2.384 1.04.523.459.784 1.083.784 1.872 0 .661-.176 1.237-.528 1.728-.352.49-.848.875-1.488 1.152-.64.267-1.402.4-2.288.4zm6.673-.144V34.22h1.664V45.5h-1.664zm10.026.144c-1.227 0-2.261-.23-3.104-.688a4.631 4.631 0 01-1.92-2c-.427-.864-.64-1.893-.64-3.088 0-1.184.219-2.208.656-3.072a4.638 4.638 0 011.904-2.016c.832-.47 1.829-.704 2.992-.704a6.8 6.8 0 012.224.352c.683.235 1.253.57 1.712 1.008l-.592 1.296c-.512-.427-1.035-.73-1.568-.912a5.21 5.21 0 00-1.776-.288c-1.248 0-2.197.379-2.848 1.136-.651.747-.976 1.813-.976 3.2 0 1.419.331 2.496.992 3.232.672.736 1.675 1.104 3.008 1.104.811 0 1.616-.133 2.416-.4V40.78h-2.752v-1.248h4.144v5.312c-.48.235-1.077.427-1.792.576a9.958 9.958 0 01-2.08.224zm6.903-.144V34.22h1.264l6.464 8.528V34.22h1.536V45.5h-1.232l-6.496-8.56v8.56h-1.536z" fill="#000" fill-opacity=".2"/></svg>