<svg version="1.1" id="Layer_1" xmlns="http://www.w3.org/2000/svg" x="0" y="0" viewBox="-67 69 56 56" xml:space="preserve"><g opacity=".8" fill="#0c0f1e" id="Objects_copy"><path d="M-21.8 79.8c-2.7-2.8-6.4-4.3-10.3-4.3s-7.6 1.5-10.3 4.3c-2.2 2.2-3.5 4.9-4.1 7.8-.1.3-.1.6-.1.9s-.1.6-.1.9v15.3h12.6V102H-44V89.3c0-.3 0-.6.1-.9 0-.3.1-.6.2-.9.5-2.3 1.6-4.3 3.2-5.9 2.2-2.2 5.1-3.5 8.4-3.5 6.6 0 11.9 5.3 11.9 11.9 0 3.3-1.3 6.2-3.5 8.4-1.6 1.6-3.6 2.7-5.9 3.2v2.7c2.9-.5 5.6-1.9 7.8-4.1 2.8-2.8 4.3-6.4 4.3-10.3 0-3.7-1.5-7.4-4.3-10.1z" opacity=".5"/><path d="M-44 92h9.9v12.7c0 .3 0 .6-.1.9 0 .3-.1.6-.2.9-.5 2.3-1.6 4.3-3.2 5.9-2.2 2.2-5.1 3.5-8.4 3.5-6.6 0-11.9-5.3-11.9-11.9 0-3.3 1.3-6.2 3.5-8.4 1.6-1.6 3.6-2.7 5.9-3.2v-2.7c-2.9.5-5.6 1.9-7.8 4.1-2.7 2.6-4.2 6.2-4.2 10.1s1.5 7.6 4.3 10.3c2.8 2.8 6.4 4.3 10.3 4.3s7.6-1.5 10.3-4.3c2.6-2.6 4.1-6 4.3-9.6V89.3h-12.6v.7l-.1 2z"/></g></svg>