<svg version="1.1" id="Layer_1" xmlns="http://www.w3.org/2000/svg" x="0" y="0" viewBox="-67 69 56 56" xml:space="preserve"><style>.st1,.st2{fill:#0c0f1e}.st2{opacity:.5;enable-background:new}</style><g opacity=".8" id="Objects_copy"><path class="st1" d="M-49.2 89.6l16.1-16.1-6.4 1.8c-6.7 1.8-12.3 5-16.7 9.4l-5 5c1.6 1.6 3.8 2.5 6 2.5s4.4-.9 6-2.6zm-5.3-3.4c3.7-3.7 8.3-6.5 13.8-8.2l-10 10c-1.2 1.2-2.7 1.8-4.4 1.8-.9 0-1.7-.2-2.5-.5l3.1-3.1z"/><path class="st2" d="M-51.3 114.1l5 5c1.6-1.6 2.5-3.8 2.5-6s-.8-4.3-2.5-6L-62.5 91l1.8 6.4c1.8 6.7 4.9 12.3 9.4 16.7zm3.3-5.4c1.8 1.8 2.3 4.6 1.3 6.8l-3.1-3.1c-3.7-3.7-6.5-8.3-8.2-13.8l10 10.1z"/><path class="st1" d="M-22.9 101.9c-2.2 0-4.3.8-6 2.5l-16 16.1 6.4-1.8c6.7-1.8 12.3-5 16.7-9.4l5-5c-.8-.8-1.8-1.4-2.8-1.9-1.1-.3-2.2-.5-3.3-.5zm-.6 5.9c-3.7 3.7-8.3 6.5-13.8 8.2l10-10c1.2-1.2 2.7-1.8 4.4-1.8.9 0 1.7.2 2.5.5l-3.1 3.1z"/><path class="st2" d="M-31.6 86.9l16.1 16.1-1.8-6.4c-1.8-6.7-5-12.3-9.4-16.7l-5-5c-3.2 3.3-3.2 8.7.1 12zm.3-8.5l3.1 3.1c3.7 3.7 6.5 8.3 8.2 13.8l-10-10c-1.9-1.9-2.3-4.6-1.3-6.9z"/></g></svg>