<svg version="1.1" id="Layer_1" xmlns="http://www.w3.org/2000/svg" x="0" y="0" viewBox="-67 69 56 56" xml:space="preserve"><g opacity=".8" fill="#0c0f1e" id="Objects_copy"><path d="M-62.4 93.1s0 .1-.1.1c-2.3 6.5 3.3 20.8 16.9 20.8.7 0 1.4 0 2.2-.1.3 0 .6-.1 1-.1-2.4-1.4-4.4-3.3-6-5.7-.6-.8-1.1-1.7-1.5-2.6l-.3-.6v-.1c-1.1-2.5-1.7-5.3-1.7-8.1 0-4.1 1.2-8 3.6-11.4.5-.8 1.1-1.5 1.8-2.2 2-2.2 4.6-3.9 7.4-5 .9-.3 1.7-.6 2.6-.8 1.5-.3 3-.5 4.6-.5 3.6 0 7.1 1 10.1 2.8l-.1-.1-.1-.1-.1-.1-.1-.1-.1-.1c-2.5-2.5-6.9-4.3-10.2-5.3-3-.9-6.3-1.4-9.3-.8-1.3.3-2.2 1.6-3.1 2.5l-7.5 7.5-8.3 8.3c-.6.6-1.4 1.2-1.7 1.8z"/><path d="M-15.3 100.3c.2-.4.3-.7.3-1.1 1-9.7-6.6-19.4-17.3-19.4-1.1 0-2.1.1-3.1.3 2.4 1.4 4.4 3.3 6 5.7 2.3 3.3 3.6 7.3 3.6 11.4s-1.2 8-3.6 11.4c-2.3 3.3-5.4 5.7-9.1 7.2-2.3.9-4.7 1.3-7.2 1.3-3.6 0-7-1-10.1-2.8 7.9 7.5 15 8 20.2 5.9 3.1-3.3 6.6-6.4 9.9-9.6 2-1.9 4-3.8 6-5.8 1.3-1.2 3.5-2.7 4.4-4.5z" opacity=".5"/></g></svg>